{"asset":{"version":"2.0","generator":"Unity 2022.3.55f1 glTFast 6.10.0"},"nodes":[{"name":"RW_LP_CP_Character_SnowMan.001","mesh":0}],"buffers":[{"uri":"RW_LP_CP_Character_SnowMan.001.bin","byteLength":103916}],"bufferViews":[{"buffer":0,"byteLength":7980,"target":34963},{"buffer":0,"byteLength":95936,"byteOffset":7980,"byteStride":32,"target":34962}],"accessors":[{"bufferView":1,"componentType":5126,"count":2998,"type":"VEC3","max":[0.578910053,1.20497847,0.426597238],"min":[-0.6172194,-0.00246143341,-0.347791255]},{"bufferView":1,"componentType":5126,"count":2998,"type":"VEC3","byteOffset":12},{"bufferView":1,"componentType":5126,"count":2998,"type":"VEC2","byteOffset":24},{"bufferView":0,"componentType":5123,"count":3990,"type":"SCALAR"}],"images":[{"name":"RW_LP_Texture_00.jpg","uri":"RW_LP_Texture_00.jpg","mimeType":"image/jpeg"}],"materials":[{"name":"RW_LP_Material","pbrMetallicRoughness":{"metallicFactor":0,"roughnessFactor":0.5,"baseColorTexture":{"index":0}}}],"meshes":[{"name":"RW_LP_CP_Character_SnowMan.001","primitives":[{"attributes":{"POSITION":0,"NORMAL":1,"TEXCOORD_0":2},"indices":3,"material":0}]}],"scene":0,"scenes":[{"name":"RW_LP_CP_Character_SnowMan.001","nodes":[0]}],"textures":[{"source":0}]}